<svg width="172" height="172" xmlns="http://www.w3.org/2000/svg">

 <title>Asset 46</title>
 <g>
  <title>Layer 1</title>
  <g stroke="null" id="svg_5">
   <rect x="0" y="0" stroke="null" fill="#000000" id="svg_1" opacity="0" height="172" width="172" class="cls-1"/>
   <path stroke="null" id="svg_2" fill="#000000" d="m117.7469,62.0576a2.6875,2.6875 0 0 1 -3.0616,2.58a51.6,51.6 0 0 0 -10.8962,-0.0301c-7.31,0.7611 -13.416,3.01 -19.0275,5.1041l0,0l-1.0148,0.3741c-5.9598,2.2016 -11.4552,4.0979 -17.9697,4.2484a38.27,38.27 0 0 1 -8.4968,-0.8041a6.6779,6.6779 0 0 1 -5.2847,-5.1944a33.5615,33.5615 0 0 1 -0.6321,-6.4844a33.1917,33.1917 0 0 1 66.3834,0l0,0.2064z" class="cls-2"/>
   <path stroke="null" id="svg_3" fill="#000000" isolation="isolate" opacity="0.7" d="m54.3176,78.5524c-2.494,-0.5977 -4.7687,2.0769 -3.5389,4.3301l32.5811,59.7313a1.3803,1.3803 0 0 0 2.4252,0l35.9609,-65.9276a3.9173,3.9173 0 0 0 -2.58,-5.7878a48.7663,48.7663 0 0 0 -14.835,-0.8127c-6.6091,0.6923 -12.1002,2.7262 -17.802,4.8375l-0.9073,0.3354c-5.9684,2.2059 -12.2292,4.4161 -19.7585,4.5881a44.72,44.72 0 0 1 -11.5455,-1.2943z" class="cls-3"/>
   <path stroke="null" id="svg_4" fill="#000000" d="m84.5552,76.8109a1.6598,1.6598 0 0 1 1.0836,-1.5523l0.9073,-0.3354c5.7018,-2.1113 11.18,-4.1452 17.802,-4.8375a48.7663,48.7663 0 0 1 14.835,0.8127a3.9173,3.9173 0 0 1 2.58,5.7878l-35.9781,65.9276a1.3588,1.3588 0 0 1 -1.2298,0.7181l0,-66.521z" class="cls-4"/>
  </g>
 </g>
</svg>