<svg width="120" height="120" xmlns="http://www.w3.org/2000/svg" fill="none">

 <g>
  <title>Layer 1</title>
  <g stroke="null" id="svg_13">
   <path stroke="null" id="svg_1" fill="black" d="m57.25658,57.11194c2.45726,4.34552 -3.0382,5.69235 -5.61699,5.94028c-3.90799,0.38162 -4.71702,-1.88077 -3.95357,-4.7231c0.25036,-1.01766 0.80639,-1.93323 1.59233,-2.62255c0.78614,-0.68931 1.7643,-1.11894 2.80181,-1.23076c1.02232,-0.09419 2.05031,0.1031 2.96589,0.5696c0.91577,0.46629 1.68186,1.18255 2.21054,2.06652l0,0z"/>
   <path stroke="null" id="svg_2" fill="black" d="m72.59748,49.07233c-2.8561,21.94517 35.64715,17.37825 34.91409,34.8442c3.7978,-4.95969 5.43104,-18.435 -5.75008,-25.37107c-9.96191,-6.18437 -22.94298,-2.80039 -29.16401,-9.47313z"/>
   <path stroke="null" id="svg_3" fill="black" d="m94.77519,40.79794c-0.25077,-0.23274 -0.50903,-0.46163 -0.7596,-0.69053c0.25442,0.23274 0.50883,0.47703 0.7596,0.69053z"/>
   <path stroke="null" id="svg_4" fill="black" d="m103.72531,56.79311l-0.02289,-0.03423c-0.34739,-0.6486 -0.7436,-1.26985 -1.18477,-1.85808c-1.29821,-1.76653 -3.16014,-3.03253 -5.27528,-3.58633c-1.408,-0.36501 -2.84779,-0.59249 -4.29934,-0.67898c-1.46978,-0.10695 -2.96994,-0.16792 -4.48529,-0.24814c-3.0382,-0.16792 -6.14872,-0.48068 -9.18712,-1.35047c-0.7596,-0.21755 -1.5192,-0.45414 -2.25206,-0.74016c-0.3798,-0.13734 -0.73307,-0.28622 -1.10902,-0.44644c-0.37595,-0.16023 -0.7596,-0.34334 -1.1394,-0.538c-1.42866,-0.78614 -2.75198,-1.75134 -3.93838,-2.87271c-2.33957,-2.18623 -4.1776,-4.66618 -6.01968,-7.06976c-1.73655,-2.41269 -3.6001,-4.73059 -5.58296,-6.94356c-1.95612,-2.168 -4.26855,-3.98233 -6.8362,-5.3642c-2.6586,-1.3452 -5.5463,-2.17367 -8.51097,-2.44166c3.07567,-0.33564 6.1868,0.04558 9.09212,1.11388c2.93165,1.14325 5.61153,2.85306 7.8883,5.03241c1.48639,1.4003 2.88182,2.89519 4.1776,4.47516c9.64673,-1.90771 17.47041,-0.2137 23.4824,3.07507l0.13673,0.06867c1.91359,1.04258 3.70685,2.29399 5.34739,3.73136c0.26211,0.22889 0.52038,0.45779 0.7596,0.69053c1.28059,1.18194 2.47245,2.45706 3.56628,3.81522l0.08345,0.1106c3.55108,4.51709 5.30566,9.21365 5.30951,12.05983z"/>
   <path stroke="null" id="svg_5" fill="black" d="m103.72288,56.79291l-0.02248,-0.04537l0.02248,0.04537z"/>
   <path stroke="null" id="svg_6" fill="black" d="m44.36991,25.4455c2.46111,0.35873 4.97144,1.34297 6.58928,3.2201c1.61805,1.87713 2.21419,4.31879 2.68129,6.64235c0.3798,1.80076 0.67999,3.63596 1.38632,5.34131c0.34172,0.83171 0.84306,1.56032 1.26094,2.34625c0.34557,0.65245 0.97594,1.24007 1.21901,1.9381c0.04355,0.10027 0.05976,0.21026 0.04699,0.31883c-0.01256,0.10877 -0.05368,0.21188 -0.11911,0.29938c-0.85825,0.95386 -3.17493,-0.10695 -4.04857,-0.53415c-1.51009,-0.7519 -2.86258,-1.788 -3.98395,-3.05218c-3.50551,-3.91063 -5.317,-9.53816 -5.20681,-14.66192c0.02431,-0.62206 0.08264,-1.2423 0.17461,-1.85808z"/>
   <path stroke="null" id="svg_7" fill="black" d="m85.53277,69.54995c-5.31721,14.906 18.79961,24.90559 9.76441,40.05973c9.27057,-3.84581 13.67241,-15.46304 9.82518,-24.68075c-3.36513,-8.09188 -13.3155,-11.04115 -19.5896,-15.37898z"/>
   <path stroke="null" id="svg_8" fill="black" d="m53.63805,89.03583c1.44891,-1.09707 3.03314,-2.00109 4.71317,-2.6898c1.69968,-0.68344 3.46297,-1.1947 5.26393,-1.52609c3.57377,-0.68283 7.10966,-0.85075 10.0796,-2.05254c1.46735,-0.57547 2.81761,-1.4161 3.98395,-2.47994c1.12887,-1.05352 1.99319,-2.36104 2.52187,-3.81522c0.54144,-1.53419 0.76122,-3.1644 0.64556,-4.78792c-0.13409,-1.74425 -0.52726,-3.45831 -1.16594,-5.08588c1.32373,1.38328 2.28772,3.07304 2.80647,4.91958c0.51876,1.84674 0.57608,3.79335 0.16731,5.66763c-0.46467,1.98428 -1.46775,3.80003 -2.89783,5.24611c-1.41549,1.4007 -3.12247,2.46921 -4.99797,3.12834c-1.79002,0.63057 -3.65641,1.01564 -5.54873,1.14467c-1.82304,0.15253 -3.58532,0.19446 -5.31721,0.29756c-3.50146,0.14746 -6.95956,0.83333 -10.25421,2.0335l0,0z"/>
   <path stroke="null" id="svg_9" fill="black" d="m87.65236,115.24044c-0.53537,0.4274 -1.07094,0.88134 -1.65958,1.27815c-0.59249,0.39216 -1.21313,0.73894 -1.85727,1.03772c-1.34075,0.65711 -2.81498,0.99275 -4.30684,0.98059c-4.04087,-0.07637 -6.89697,-3.09796 -8.56789,-6.51272c-1.1394,-2.32721 -1.92554,-4.84139 -3.27763,-7.05801c-1.93323,-3.17047 -5.24104,-5.72293 -9.11501,-5.24975c-1.57977,0.19831 -3.06109,0.91172 -3.93838,2.28913c-2.30919,3.59767 1.00652,8.63757 5.23355,7.92416c0.35954,-0.05489 0.71139,-0.15233 1.04825,-0.28986c0.33564,-0.14362 0.649,-0.33524 0.93036,-0.56859c0.59046,-0.49384 1.03569,-1.14021 1.28747,-1.86943c0.27771,-0.76041 0.33949,-1.58321 0.17866,-2.37684c-0.17359,-0.82948 -0.66095,-1.5585 -1.35979,-2.0335c0.81247,0.38203 1.44547,1.06587 1.76612,1.90751c0.3324,0.86615 0.41788,1.80805 0.24672,2.72038c-0.1659,0.95041 -0.58297,1.83844 -1.20766,2.5713c-0.33179,0.37717 -0.71544,0.70471 -1.1394,0.9729c-0.42011,0.26515 -0.87,0.47905 -1.34054,0.63725c-0.95406,0.32754 -1.96949,0.43328 -2.96994,0.3089c-1.40476,-0.20094 -2.7299,-0.77824 -3.83588,-1.67092c-1.30651,-1.03772 -2.2788,-2.39608 -3.45993,-3.56344c-1.35412,-1.42724 -2.9515,-2.59925 -4.71702,-3.46034c-1.21739,-0.53719 -2.49149,-0.93401 -3.7978,-1.18275c-0.65711,-0.13734 -1.32171,-0.23659 -1.98631,-0.32045c-0.30384,-0.03059 -1.79266,-0.36258 -2.0015,-0.16792c2.05416,-1.89981 4.29367,-3.58694 6.68428,-5.03605c2.45462,-1.46329 5.09014,-2.59601 7.83888,-3.36898c2.84982,-0.80578 5.83049,-1.03529 8.76924,-0.67513c1.51272,0.18251 2.99445,0.56737 4.40548,1.14447c1.47869,0.5933 2.84354,1.4402 4.03338,2.50283c1.17789,1.11449 2.12972,2.44774 2.80283,3.92582c0.60788,1.38389 1.06142,2.83098 1.35209,4.31494c0.86594,4.43708 0.54691,11.31603 6.33122,12.33085c0.30141,0.05874 0.60566,0.10189 0.91132,0.12964l0.94575,0.02289c0.65022,-0.04639 1.29618,-0.13956 1.93323,-0.27852c1.31948,-0.31174 2.60553,-0.75251 3.83953,-1.31624l0,0z"/>
   <path stroke="null" id="svg_10" fill="black" d="m54.04297,110.40249l-0.15172,-0.1189l0.15172,0.1189z"/>
   <path stroke="null" id="svg_11" fill="black" d="m48.85337,47.78262c-0.21066,0.81308 -0.57851,1.57673 -1.08248,2.2472c-0.93806,1.22306 -2.17975,2.17691 -3.60031,2.76596c-1.27795,0.55319 -2.63105,0.91071 -4.01434,1.06061c-0.30019,0.03828 -0.61153,0.06117 -0.91152,0.08406c-0.87628,0.03342 -1.71872,0.3478 -2.40419,0.89694c-0.68546,0.54914 -1.17789,1.30449 -1.40516,2.15524c-0.10412,0.42315 -0.18149,0.85258 -0.23173,1.28565c-0.13673,1.12178 -0.15941,2.28913 -0.28095,3.70078c-0.29756,2.40216 -0.9893,4.73809 -2.04707,6.91318c-1.37478,2.90714 -2.91687,5.24975 -2.55975,8.59949c0.23537,2.17469 1.34439,3.63211 2.81802,5.13531c2.6584,2.73152 8.60982,3.95256 7.28042,10.68242c-0.80133,4.01758 -7.43234,8.23326 -16.75234,9.70608c0.92671,-0.14118 -1.18883,-3.72366 -1.32171,-3.95256c-0.99882,-1.57187 -2.09265,-3.05218 -2.88642,-4.75773c-1.55714,-3.30781 -2.27874,-7.13437 -1.6407,-10.75878c0.67224,-3.81522 3.48272,-6.73776 5.81844,-9.6526c2.77994,-3.46803 5.6968,-8.01186 6.34236,-12.51376c0.15192,-1.09119 0.25826,-2.45706 0.50134,-3.81522c0.23173,-1.50482 0.70106,-2.96265 1.38997,-4.31879c0.47034,-0.88944 1.08957,-1.69097 1.83074,-2.36935c0.38628,-0.36015 0.6411,-0.84002 0.72375,-1.36303c0.08264,-0.52301 -0.01175,-1.05858 -0.26799,-1.52123l-14.85743,-26.84385l21.34037,26.45473c0.24307,0.30647 0.55015,0.55562 0.89977,0.72942c0.34962,0.174 0.73307,0.26839 1.12299,0.2769c0.38993,0.0083 0.77702,-0.06968 1.13373,-0.22829c0.35671,-0.15881 0.67412,-0.39438 0.92995,-0.69033c0.27042,-0.3166 0.42376,-0.71727 0.43409,-1.13434c0.01033,-0.41707 -0.12275,-0.82483 -0.37696,-1.1548c-1.39382,-1.78921 -2.86744,-3.61307 -4.29549,-5.40613l-5.37028,-6.67659l-10.77843,-13.33041l-14.69751,-18.52604l16.07998,17.33188l11.47342,12.74284l5.72354,6.38672c1.8988,2.14795 3.7978,4.22723 5.6968,6.48578l0.31134,0.38162l0.06847,0.59127c0.09257,0.80194 0.04618,1.6138 -0.13673,2.39973z"/>
   <path stroke="null" id="svg_12" fill="black" d="m53.76951,110.22383c-1.03123,-0.80032 -1.94863,-1.73857 -2.72687,-2.78885c0.83495,1.00004 1.74668,1.93242 2.72687,2.78885l0,0z"/>
  </g>
 </g>
</svg>